<svg width="758" height="758" xmlns="http://www.w3.org/2000/svg" xmlns:xlink="http://www.w3.org/1999/xlink" overflow="hidden"><defs><clipPath id="clip0"><rect x="148" y="-1" width="758" height="758"/></clipPath><clipPath id="clip1"><rect x="235" y="0" width="602" height="722"/></clipPath><clipPath id="clip2"><rect x="235" y="0" width="602" height="722"/></clipPath><clipPath id="clip3"><rect x="235" y="0" width="602" height="722"/></clipPath><clipPath id="clip4"><rect x="254" y="125" width="527" height="587"/></clipPath><clipPath id="clip5"><rect x="254" y="125" width="527" height="587"/></clipPath><clipPath id="clip6"><rect x="254" y="125" width="527" height="587"/></clipPath></defs><g clip-path="url(#clip0)" transform="translate(-148 1)"><g clip-path="url(#clip1)"><g clip-path="url(#clip2)"><g clip-path="url(#clip3)"><path d="M1.63653 377.245 1.05893 173.665C0.9386 128.372 30.0833 94.8708 73.5477 102.187 82.1395 103.631 96.2185 108.083 103.631 112.054L144.328 133.835 222.544 35.2336C235.674 18.6852 255.642 9.03845 276.767 9.03845 297.891 9.03845 317.859 18.6852 330.989 35.2336L493.92 240.667C532.43 287.339 553.506 345.953 553.533 406.462 553.533 554.352 429.422 673.867 276.767 673.867 124.112 673.867 0 554.352 0 406.462 0 396.643 0.553533 386.896 1.63653 377.245Z" stroke="#FFFFFF" stroke-width="48.1333" fill="#FF9600" transform="matrix(1.00055 0 0 1 259.08 24.0667)"/><path d="M24.3555 122.186C24.7033 121.297 25.1644 120.455 25.7273 119.684L89.5039 32.8269C93.6932 27.1169 100.352 23.7437 107.434 23.7437 114.516 23.7437 121.174 27.1169 125.363 32.8269L186.083 115.52C205.558 134.648 216.55 160.784 216.6 188.081 216.6 245.673 168.106 292.362 108.3 292.362 48.4943 292.362 0 245.673 0 188.081 0 163.076 9.14533 140.14 24.3555 122.186L24.3555 122.186Z" fill="#FFC800" transform="matrix(1.00055 0 0 1 427.64 288.8)"/></g></g></g><g clip-path="url(#clip4)"><g clip-path="url(#clip5)"><g clip-path="url(#clip6)"><path d="M177.723 0C226.223 0 237.761 64.4423 333.44 64.4423 393.818 64.4423 397.2 39.4826 425.029 39.4826 436.405 39.4826 442.872 61.2549 442.872 75.7706 442.872 133.144 428.143 197.285 437.71 197.285 450.248 197.285 501.163 164.407 514.36 164.407 526.898 164.407 526.567 174.141 526.567 179.584 526.567 185.027 530.42 280.096 401.747 354.991 396.138 358.291 368.863 477.054 272.744 477.054 208.518 477.054 159.689 442.311 140.99 359.168 137.251 342.014 0 287.904 0 168.688 0 142.514 6.59826 128.217 16.7167 128.217 42.014 128.217 96.1216 170.668 119.437 170.668 139.616 170.668 136.372 126.677 136.372 113.48 136.372 100.288 135.271 0 177.723 0Z" fill="#78C800" transform="matrix(1.00065 0 0 1 254.039 125)"/><path d="M400.913 84.6103C392.171 84.6103 390.058 89.1216 386.954 86.3026 385.544 84.8931 393.019 81.6487 393.019 80.2392 393.019 79.5332 391.888 79.6758 390.341 79.6758 381.175 79.6758 363.125 93.072 360.584 93.072 359.455 93.072 357.623 93.3549 357.623 91.6625 357.623 87.8547 370.455 84.6127 361.571 84.6127 352.686 84.6127 339.573 96.036 325.893 96.036 297.689 96.036 274.988 73.8976 274.988 79.3954 274.988 81.3706 278.232 84.4724 280.345 88.4204 280.345 88.4204 281.614 94.3437 279.216 92.088 253.336 66.2107 227.464 59.9357 227.464 59.9357 227.464 59.9357 225.489 59.9357 225.489 60.7819 225.489 63.7435 231.129 67.6916 231.129 68.8206 231.129 69.9496 230.423 70.6532 229.297 70.6532 223.796 70.6532 219.846 60.076 197.71 60.076 164.286 60.076 155.08 112.674 155.08 155.827 155.08 217.027 194.463 236.472 227.038 236.472 252.873 236.472 280.533 221.244 292.108 198.879L326.488 201.499C326.488 201.499 343.342 233.442 373.66 233.442 402.113 233.442 426.857 215.439 426.857 153.003 426.862 87.4317 409.66 84.6103 400.913 84.6103Z" fill="#8EE000" transform="matrix(1.00065 0 0 1 254.039 125)"/><path d="M267.515 158.389C267.515 187.929 247.819 211.876 223.523 211.876 199.227 211.876 179.531 187.929 179.531 158.389 179.531 128.849 199.227 104.902 223.523 104.902 247.819 104.902 267.515 128.849 267.515 158.389Z" fill="#FFFFFF" transform="matrix(1.00065 0 0 1 254.039 125)"/><path d="M410.768 168.486C409.375 194.47 391.805 214.983 371.527 214.301 351.248 213.619 335.933 192.001 337.326 166.014 338.719 140.03 356.289 119.517 376.569 120.2 396.849 120.882 412.16 142.5 410.768 168.486Z" fill="#FFFFFF" transform="matrix(1.00065 0 0 1 254.039 125)"/><path d="M246.783 158.389C246.783 174.617 235.964 187.772 222.617 187.772 209.271 187.772 198.452 174.617 198.452 158.389 198.452 142.161 209.271 129.006 222.617 129.006 235.964 129.006 246.783 142.161 246.783 158.389Z" fill="#3F3F3F" transform="matrix(1.00065 0 0 1 254.039 125)"/><path d="M218.273 139.749C218.273 146.503 213.205 151.979 206.954 151.979 200.703 151.979 195.635 146.503 195.635 139.749 195.635 132.995 200.703 127.52 206.954 127.52 213.205 127.52 218.273 132.995 218.273 139.749Z" fill="#FFFFFF" transform="matrix(1.00065 0 0 1 254.039 125)"/><path d="M394.198 168.479C393.091 183.755 382.882 195.692 371.394 195.143 359.907 194.594 351.488 181.763 352.593 166.487 353.698 151.211 363.907 139.274 375.395 139.823 386.882 140.372 395.301 153.203 394.198 168.479Z" fill="#3F3F3F" transform="matrix(1.00065 0 0 1 254.039 125)"/><path d="M279.748 220.043C279.748 220.043 272.682 279.18 292.032 278.772 311.383 278.363 310.558 250.025 310.437 249.688 310.318 249.348 279.748 220.043 279.748 220.043Z" fill="#71B200" transform="matrix(1.00065 0 0 1 254.039 125)"/><path d="M370.208 150.69C370.406 156.918 366.065 162.107 360.508 162.278 354.953 162.449 350.292 157.538 350.095 151.308 349.898 145.078 354.24 139.892 359.795 139.721 365.348 139.552 370.011 144.463 370.208 150.69Z" fill="#FFFFFF" transform="matrix(1.00065 0 0 1 254.039 125)"/><path d="M504.607 256.322C479.191 293.406 425.987 322.666 417.254 322.666 407.359 322.666 414.174 312.108 407.136 312.108 400.756 312.108 399.439 423.173 285.722 423.173 157.928 423.173 160.787 290.991 148.47 290.991 139.452 290.991 145.39 310.346 135.716 310.346 103.39 310.346 17.3038 245.015 2.99489 198.594 23.0654 297.121 137.584 343.525 140.995 359.175 159.692 442.319 208.52 477.059 272.749 477.059 368.868 477.059 396.143 358.295 401.752 354.996 454.859 324.08 486.158 288.196 504.607 256.322Z" fill="#71B200" transform="matrix(1.00065 0 0 1 254.039 125)"/><path d="M279.751 213.999C279.751 213.999 275.591 257.242 296.643 257.242 317.693 257.242 328.161 239.971 328.161 224.464 328.161 208.957 279.751 213.999 279.751 213.999Z" fill="#F49000" transform="matrix(1.00065 0 0 1 254.039 125)"/><path d="M311.397 188.407C326.711 188.407 338.249 206.184 338.249 223.77 338.249 241.357 323.875 259.321 319.148 259.321 314.42 259.321 279.625 226.984 279.625 213.179 279.625 199.374 292.862 188.407 311.397 188.407Z" fill="#FFC200" transform="matrix(1.00065 0 0 1 254.039 125)"/><path d="M316.432 198.713C316.432 204.332 313.948 208.887 310.884 208.887 307.82 208.887 305.336 204.332 305.336 198.713 305.336 193.095 307.82 188.54 310.884 188.54 313.948 188.54 316.432 193.095 316.432 198.713Z" fill="#FFF3B8" transform="matrix(0.0552301 -0.998474 0.999125 0.055194 349.411 623.141)"/><path d="M253.762 493.122C270.208 492.259 282.009 495.761 282.781 510.523 283.552 525.289 263.519 529.151 252.868 529.707 242.217 530.264 230.157 525.465 229.601 514.809 229.042 504.163 238.906 493.902 253.762 493.122ZM354.799 462.933C370.496 462.111 370.826 479.144 370.893 480.453 370.962 481.761 372.571 498.164 345.101 499.609 327.721 500.519 328.249 492.716 328.049 488.884 327.85 485.053 334.895 463.979 354.799 462.933Z" fill="#D98500" transform="matrix(1.00065 0 0 1 254.039 125)"/><path d="M414.865 573.739C414.865 581.063 351.406 587 273.124 587 194.843 587 131.383 581.063 131.383 573.739 131.383 566.416 194.843 560.479 273.124 560.479 351.406 560.479 414.865 566.416 414.865 573.739Z" fill="#E0E0E0" transform="matrix(1.00065 0 0 1 254.039 125)"/></g></g></g></g></svg>